<?xml version="1.0" standalone="no"?>
<!DOCTYPE svg PUBLIC "-//W3C//DTD SVG 20010904//EN"
 "http://www.w3.org/TR/2001/REC-SVG-20010904/DTD/svg10.dtd">
<svg version="1.0" xmlns="http://www.w3.org/2000/svg"
 width="281.000000pt" height="281.000000pt" viewBox="0 0 281.000000 281.000000"
 preserveAspectRatio="xMidYMid meet">

<g transform="translate(0.000000,281.000000) scale(0.100000,-0.100000)"
fill="#000000" stroke="none">
<path d="M0 2373 l0 -438 63 68 c34 37 70 79 80 92 10 14 23 22 29 19 6 -4 8
-3 5 3 -8 13 22 55 34 47 5 -3 8 -2 7 3 -5 14 57 93 69 88 7 -2 15 1 19 7 4 7
3 8 -4 4 -48 -30 62 112 170 217 39 38 74 65 80 61 6 -4 8 -3 5 4 -9 13 33 49
115 99 68 42 76 44 98 29 13 -9 13 -9 2 6 -12 15 -10 19 15 31 15 8 34 12 42
9 8 -2 11 0 8 5 -7 11 55 35 100 39 16 1 28 3 28 4 0 8 43 6 54 -3 12 -9 13
-9 7 1 -5 8 -1 13 11 13 63 6 110 4 127 -4 13 -6 16 -6 11 2 -5 8 2 10 22 7
15 -2 36 -5 45 -5 10 -1 17 -6 15 -12 -1 -6 5 -14 13 -16 12 -4 12 -3 1 5 -8
6 -9 12 -3 15 13 9 253 -34 247 -44 -3 -4 4 -5 15 -2 12 3 20 0 20 -8 0 -7 3
-9 7 -6 3 4 13 1 21 -6 13 -10 14 -9 8 1 -8 13 0 10 43 -15 2 -2 -4 -12 -14
-23 -16 -18 -20 -18 -46 -5 -15 8 -35 15 -44 15 -9 0 -13 4 -10 10 3 5 0 7 -8
4 -8 -3 -39 2 -68 10 -30 9 -66 17 -81 18 -16 1 -28 5 -28 8 0 3 -12 6 -27 6
-60 1 -109 8 -122 18 -11 8 -13 8 -7 -1 5 -9 0 -13 -14 -13 -14 0 -19 4 -14
13 5 8 2 8 -9 -2 -9 -7 -17 -10 -17 -5 0 5 -11 9 -25 9 -14 0 -25 -2 -25 -5 0
-3 -20 -6 -45 -7 -28 -1 -43 2 -40 8 4 5 11 6 17 3 7 -5 8 -2 3 6 -6 10 -12 8
-26 -9 -10 -12 -31 -24 -46 -26 -15 -2 -30 -4 -33 -5 -3 -2 -8 -2 -12 -1 -5 0
-8 -5 -8 -12 0 -8 -4 -7 -10 3 -5 9 -10 10 -10 3 0 -6 -37 -32 -82 -58 -46
-26 -93 -57 -105 -68 -20 -17 -25 -18 -40 -6 -16 12 -17 12 -6 -2 11 -13 8
-20 -15 -42 -23 -22 -31 -25 -42 -14 -12 10 -12 9 -2 -4 9 -13 6 -21 -18 -44
-26 -25 -31 -26 -47 -14 -16 13 -17 12 -5 -2 11 -14 8 -21 -16 -45 -15 -16
-67 -76 -114 -134 -47 -58 -91 -104 -98 -102 -6 1 -9 -1 -6 -6 8 -13 -24 -53
-36 -46 -7 5 -8 2 -4 -5 5 -8 -34 -53 -108 -127 l-116 -114 0 -405 c0 -289 3
-405 11 -405 6 0 24 11 41 25 16 14 36 25 43 25 7 0 15 3 17 8 1 4 37 27 78
51 41 25 77 48 80 52 3 4 37 27 75 51 118 72 336 234 401 295 142 135 248 299
320 493 41 109 54 111 35 4 -6 -32 -9 -59 -7 -62 3 -2 15 16 27 40 47 94 149
229 260 343 63 66 143 154 176 196 34 42 96 108 138 147 l77 72 -886 0 -886 0
0 -437z m1058 157 c-7 -11 -16 -20 -21 -20 -4 0 -5 -4 -2 -10 3 -5 1 -10 -4
-10 -18 0 -13 18 11 40 27 25 32 25 16 0z m262 -34 c0 -18 -12 -26 -48 -32
l-27 -5 30 25 c35 29 45 32 45 12z m-124 -64 c60 -48 57 -148 -6 -182 -14 -8
-17 -4 -17 26 0 26 -8 43 -30 66 -35 35 -74 40 -103 13 -18 -16 -20 -16 -20
-2 0 28 21 63 48 80 35 22 101 21 128 -1z m-213 -23 c21 -9 25 -20 30 -77 7
-68 1 -84 -35 -103 -18 -10 -18 -8 -8 11 14 27 5 73 -20 95 -37 34 -97 26
-113 -15 -4 -12 -6 -11 -6 3 -1 26 28 73 53 86 28 13 70 13 99 0z"/>
<path d="M2186 2802 c-3 -5 -8 -37 -12 -73 -4 -35 -17 -125 -29 -199 -12 -74
-21 -136 -20 -138 2 -2 49 32 106 76 161 121 371 257 382 245 15 -14 5 -63
-39 -192 -53 -158 -94 -259 -157 -389 l-45 -94 9 -105 c16 -186 -9 -396 -62
-511 -23 -51 -87 -142 -100 -142 -18 0 -4 -25 24 -42 24 -16 27 -24 29 -80 0
-35 0 -71 0 -81 -1 -10 12 -59 28 -109 17 -50 30 -114 31 -142 0 -28 3 -46 5
-40 3 7 37 -5 92 -32 48 -24 112 -53 142 -64 30 -11 64 -25 75 -30 24 -12 153
-60 160 -60 3 0 5 497 5 1105 l0 1105 -309 0 c-171 0 -312 -4 -315 -8z m470
-600 c-1 -16 -8 -38 -16 -48 -14 -18 -14 -18 3 -5 21 17 57 22 57 9 0 -4 6 -8
13 -8 8 0 23 -11 36 -23 21 -23 21 -25 4 -38 -17 -13 -17 -13 -3 5 14 18 13
19 -2 13 -13 -4 -16 -2 -12 11 5 14 4 14 -4 3 -6 -8 -7 -22 -3 -30 5 -9 7 -26
5 -39 -3 -16 0 -21 8 -16 7 4 4 -2 -6 -14 -11 -12 -21 -20 -24 -17 -3 3 -12
-1 -20 -8 -13 -10 -14 -9 -8 1 6 11 0 13 -30 10 -37 -3 -39 -1 -38 24 1 18 -3
25 -12 21 -8 -3 -11 -10 -7 -16 3 -6 1 -7 -6 -3 -6 4 -9 12 -5 17 3 6 -1 9 -9
7 -9 -2 -16 2 -15 7 0 6 3 9 7 8 4 -1 8 5 8 13 0 9 -8 14 -20 12 -29 -4 -30
28 -2 56 13 13 27 21 30 18 3 -4 3 1 -1 11 -5 14 -9 15 -21 5 -22 -18 -41 -18
-38 1 2 9 4 18 4 21 1 2 6 -1 13 -8 8 -8 15 -8 24 -1 8 7 14 7 18 0 4 -6 13
-8 21 -4 8 3 15 0 15 -7 0 -6 -5 -8 -12 -4 -6 4 -8 3 -5 -4 8 -12 32 -10 44 3
4 4 2 5 -4 1 -7 -4 -13 -2 -13 3 0 6 5 11 10 11 6 0 9 3 9 8 -2 10 0 22 4 22
2 0 3 -13 3 -28z"/>
<path d="M2705 2130 c4 -6 11 -8 16 -5 14 9 11 15 -7 15 -8 0 -12 -5 -9 -10z"/>
<path d="M2546 2111 c-4 -5 3 -7 14 -4 23 6 26 13 6 13 -8 0 -17 -4 -20 -9z"/>
<path d="M1194 2772 c4 -3 14 -7 22 -8 9 -1 13 0 10 4 -4 3 -14 7 -22 8 -9 1
-13 0 -10 -4z"/>
<path d="M912 2751 c-11 -7 -11 -9 0 -14 9 -3 15 1 15 9 0 8 -1 14 -1 14 -1 0
-7 -4 -14 -9z"/>
<path d="M814 2694 c-18 -14 -18 -15 4 -4 12 6 22 13 22 15 0 8 -5 6 -26 -11z"/>
<path d="M696 2631 c-4 -5 3 -7 14 -4 23 6 26 13 6 13 -8 0 -17 -4 -20 -9z"/>
<path d="M651 2616 c-10 -11 -9 -14 1 -12 14 2 23 15 15 22 -2 2 -10 -2 -16
-10z"/>
<path d="M2530 2590 c-9 -6 -10 -10 -3 -10 6 0 15 5 18 10 8 12 4 12 -15 0z"/>
<path d="M1681 2431 c11 -15 34 -38 51 -51 89 -71 85 -65 66 -100 -20 -35 -23
-54 -8 -45 16 10 11 -1 -7 -16 -14 -12 -16 -12 -8 0 5 10 4 12 -4 7 -7 -4 -11
-16 -9 -26 2 -11 -1 -19 -7 -19 -14 1 -24 -34 -13 -48 6 -7 15 -10 22 -6 6 3
0 -6 -13 -20 -14 -15 -27 -27 -29 -27 -3 0 2 8 11 18 16 17 14 32 -3 32 -4 0
-13 -19 -18 -43 -11 -42 -13 -43 -54 -46 -23 -1 -45 -7 -49 -13 -4 -6 -12 -7
-18 -4 -6 4 -11 0 -12 -11 0 -16 -1 -16 -8 1 -7 18 -8 18 -14 2 -10 -25 -10
-26 19 -26 14 0 23 4 20 9 -6 9 84 6 122 -5 21 -6 28 3 23 29 -1 5 3 6 8 2 6
-3 8 -12 4 -20 -3 -8 -1 -15 4 -15 5 0 10 25 11 55 1 30 8 71 17 91 18 44 18
47 3 38 -7 -4 -8 -3 -4 5 4 6 11 9 16 6 8 -5 38 34 42 57 2 7 21 31 43 53 22
22 38 44 37 48 -1 5 1 6 6 3 5 -3 18 3 29 14 12 10 23 17 25 14 3 -2 5 3 5 11
0 12 -13 13 -72 8 -56 -4 -78 -2 -103 11 -18 9 -38 14 -44 10 -6 -4 -8 -3 -5
3 4 6 -12 16 -36 23 -65 21 -68 20 -46 -9z m59 -5 c0 -11 -19 -15 -25 -6 -3 5
1 10 9 10 9 0 16 -2 16 -4z m16 -351 c-1 -8 -5 -17 -8 -21 -5 -4 -4 16 1 34 3
9 9 -1 7 -13z"/>
<path d="M453 2435 c0 -8 4 -12 9 -9 5 3 6 10 3 15 -9 13 -12 11 -12 -6z"/>
<path d="M146 2092 c-3 -5 1 -9 9 -9 8 0 12 4 9 9 -3 4 -7 8 -9 8 -2 0 -6 -4
-9 -8z"/>
<path d="M1515 2012 c-2 -3 -14 -5 -26 -6 -13 -1 -23 -8 -25 -19 -2 -14 1 -15
10 -8 7 6 15 8 19 5 9 -9 45 5 50 20 5 12 -17 18 -28 8z"/>
<path d="M1215 1982 c-10 -9 -15 -11 -11 -4 4 6 2 12 -3 12 -6 0 -11 -7 -11
-15 0 -8 4 -15 9 -15 5 0 7 -13 5 -30 -3 -18 -1 -30 6 -30 6 0 8 5 5 10 -3 6
-2 10 4 10 5 0 8 9 6 19 -3 17 0 19 18 13 20 -6 50 -7 142 -3 32 1 25 14 -14
26 -18 5 -22 4 -16 -5 6 -9 4 -11 -5 -5 -7 4 -29 10 -48 12 -19 2 -42 8 -52
13 -12 6 -22 4 -35 -8z m55 -22 c0 -6 -9 -2 -20 7 -11 10 -20 19 -20 21 0 1 9
-2 20 -8 11 -6 20 -15 20 -20z"/>
<path d="M1428 1993 c7 -3 16 -2 19 1 4 3 -2 6 -13 5 -11 0 -14 -3 -6 -6z"/>
<path d="M1380 1986 c0 -2 15 -9 33 -15 29 -10 30 -9 13 4 -18 14 -46 20 -46
11z"/>
<path d="M2205 1871 c-3 -6 -3 -10 2 -9 4 2 9 -1 11 -7 1 -5 -3 -10 -10 -10
-7 0 -21 -15 -32 -34 -14 -24 -16 -32 -5 -26 9 5 8 1 -4 -12 -27 -31 -48 -193
-25 -193 5 0 8 -5 8 -11 0 -5 -5 -7 -12 -3 -7 4 -8 3 -4 -5 6 -9 11 -9 22 0
13 10 12 15 -3 33 -10 12 -11 15 -3 9 19 -18 33 -16 26 3 -3 8 -2 13 3 10 5
-3 15 18 22 47 7 28 14 54 14 57 1 3 4 12 8 20 11 30 16 90 6 90 -5 0 -8 -4
-6 -9 1 -5 -2 -11 -7 -12 -5 -2 -10 4 -12 14 -1 9 1 15 5 13 4 -3 13 -1 21 4
13 8 13 12 -1 26 -12 11 -19 12 -24 5z"/>
<path d="M1249 1778 c-7 -15 -4 -66 5 -76 5 -8 11 -30 12 -50 0 -20 6 -38 12
-40 5 -1 8 -12 5 -22 -3 -11 0 -20 6 -20 6 0 11 -9 11 -20 0 -12 7 -20 18 -20
14 0 15 2 2 10 -8 5 -11 10 -7 10 4 0 2 10 -5 23 -13 24 -17 36 -23 80 -3 15
-10 37 -16 49 l-12 21 38 -22 c54 -32 71 -12 25 29 -35 31 -69 53 -71 48z m41
-34 c0 -8 -19 -13 -24 -6 -3 5 1 9 9 9 8 0 15 -2 15 -3z"/>
<path d="M2003 1759 c-4 -12 -11 -18 -20 -15 -8 4 -13 1 -11 -5 5 -16 22 -13
33 8 6 10 15 21 20 25 6 5 5 8 -3 8 -8 0 -16 -9 -19 -21z"/>
<path d="M986 1755 c-9 -26 -7 -32 5 -12 6 10 9 21 6 23 -2 3 -7 -2 -11 -11z"/>
<path d="M1967 1699 c3 -10 9 -16 14 -13 5 3 6 -9 3 -25 -4 -17 -3 -38 1 -48
7 -17 13 -42 17 -70 1 -7 6 -13 11 -13 6 0 7 -3 4 -7 -4 -3 -3 -11 3 -18 12
-14 21 -85 11 -85 -4 0 -8 -7 -8 -15 0 -8 4 -12 9 -9 4 3 8 1 8 -4 0 -6 -8
-13 -17 -16 -12 -5 -14 -9 -5 -18 9 -9 17 -7 32 10 12 12 18 22 15 22 -3 0 7
13 21 30 15 16 31 27 35 24 5 -3 9 0 9 6 0 6 4 9 8 6 5 -3 9 1 9 9 0 10 -5 11
-18 4 -11 -6 -20 -6 -24 1 -6 10 -36 2 -32 -8 1 -4 -1 -8 -5 -10 -19 -6 -20
-1 -3 18 18 20 18 21 -3 43 -12 13 -19 27 -15 32 5 4 3 5 -4 1 -6 -3 -14 -2
-18 4 -3 5 0 10 7 10 10 1 9 4 -2 13 -17 13 -22 37 -24 103 -1 35 -4 42 -22
42 -16 0 -20 -5 -17 -19z m36 -79 c3 -11 1 -18 -4 -14 -5 3 -9 12 -9 20 0 20
7 17 13 -6z m46 -114 c0 -7 -2 -6 -6 2 -2 6 -8 10 -12 8 -4 -3 -8 1 -8 9 0 11
4 12 14 4 7 -6 13 -17 12 -23z"/>
<path d="M965 1700 c-3 -5 -1 -10 4 -10 6 0 11 5 11 10 0 6 -2 10 -4 10 -3 0
-8 -4 -11 -10z"/>
<path d="M1350 1685 c-12 -15 3 -31 20 -20 6 3 10 -2 10 -11 0 -10 3 -14 6
-11 4 3 16 0 28 -8 25 -18 40 -19 30 -2 -4 6 3 2 15 -10 12 -13 46 -35 76 -49
30 -15 73 -45 94 -67 32 -32 40 -48 46 -92 5 -40 11 -55 27 -62 20 -8 20 -10
4 -16 -11 -5 -15 -3 -10 5 4 7 3 8 -5 4 -6 -4 -9 -12 -5 -17 3 -6 7 -21 8 -34
2 -16 -1 -22 -10 -18 -8 3 -14 10 -14 16 0 6 -3 8 -6 4 -4 -3 -21 4 -38 17
-35 27 -136 81 -151 81 -5 0 -20 10 -33 22 -14 13 -29 20 -35 16 -5 -3 -7 -2
-4 3 6 11 -70 90 -79 81 -3 -3 -3 -15 1 -27 4 -12 9 -19 13 -16 3 3 12 -3 19
-14 8 -11 18 -18 23 -15 4 3 11 -5 14 -18 3 -12 18 -31 33 -41 17 -13 24 -14
19 -5 -6 11 -4 10 6 -1 29 -34 48 -43 61 -31 10 8 14 7 14 -4 0 -8 -5 -11 -10
-8 -6 3 -7 1 -3 -5 3 -6 23 -16 44 -23 20 -6 46 -19 57 -29 25 -21 98 -63 91
-52 -2 4 5 8 17 9 12 0 16 -1 10 -4 -17 -6 -16 -20 1 -20 9 0 13 8 10 21 -2
12 -6 35 -9 51 -2 17 -7 41 -10 55 -3 14 -7 35 -9 47 -2 13 -9 30 -17 40 -11
13 -11 15 -1 9 15 -9 -23 70 -43 91 -16 15 -29 17 -20 3 4 -6 -1 -7 -11 -3
-11 4 -13 8 -6 11 22 7 12 23 -10 17 -17 -5 -19 -4 -9 3 11 8 7 14 -20 28 -19
10 -42 17 -51 15 -10 -1 -18 4 -18 12 0 8 -7 18 -16 21 -9 4 -13 2 -8 -5 7
-13 -47 20 -59 36 -5 6 -7 3 -3 -7 3 -10 3 -18 0 -18 -9 0 -34 28 -34 38 0 17
-28 22 -40 7z m315 -185 c3 -5 2 -10 -4 -10 -5 0 -13 5 -16 10 -3 6 -2 10 4
10 5 0 13 -4 16 -10z m45 -111 c0 -6 -4 -7 -10 -4 -5 3 -10 11 -10 16 0 6 5 7
10 4 6 -3 10 -11 10 -16z m15 -118 c3 -5 2 -12 -3 -15 -5 -3 -9 1 -9 9 0 17 3
19 12 6z"/>
<path d="M2236 1583 c-12 -12 -6 -22 12 -17 9 2 7 -1 -5 -7 -12 -6 -24 -17
-26 -24 -8 -19 21 -13 42 9 20 21 20 22 2 33 -10 7 -22 9 -25 6z"/>
<path d="M736 1481 c-9 -10 -37 -31 -61 -47 -24 -15 -42 -31 -39 -36 3 -5 10
-5 16 -2 7 4 8 2 4 -4 -8 -13 30 -36 44 -27 6 4 7 -1 3 -11 -5 -15 -4 -15 15
1 11 10 18 24 15 32 -4 10 -9 11 -18 3 -10 -8 -15 -8 -21 1 -4 7 -3 9 4 5 13
-8 31 23 25 42 -3 7 5 24 18 38 12 13 20 24 17 24 -3 0 -13 -9 -22 -19z"/>
<path d="M2169 1498 c-9 -30 -6 -36 11 -25 18 11 18 27 -1 27 -5 0 -9 -1 -10
-2z"/>
<path d="M1137 1478 c-2 -7 2 -26 11 -43 8 -16 22 -43 30 -60 21 -43 69 -88
83 -79 7 4 9 3 6 -3 -4 -6 0 -16 8 -23 8 -7 15 -10 15 -6 0 3 9 -3 20 -14 12
-12 25 -18 30 -15 6 3 7 -1 4 -9 -3 -9 -2 -16 4 -16 6 0 35 -22 65 -50 30 -27
58 -46 62 -42 5 4 6 2 2 -3 -3 -6 10 -31 29 -54 20 -26 44 -76 58 -120 22 -70
23 -79 10 -111 -8 -19 -26 -47 -40 -61 -17 -17 -22 -29 -15 -34 6 -3 9 -11 5
-16 -4 -6 -11 -6 -19 1 -10 8 -15 8 -20 0 -4 -6 -4 -14 -1 -17 3 -4 6 -1 6 6
0 7 5 9 10 6 6 -4 7 -12 3 -18 -4 -7 7 0 25 15 17 15 41 30 52 33 11 4 17 11
14 17 -4 6 -2 8 3 5 6 -4 28 9 49 28 22 19 35 35 31 35 -5 0 -1 7 7 16 26 26
19 64 -33 169 -59 119 -92 155 -214 232 -51 32 -114 72 -142 90 -50 33 -71 41
-60 23 3 -6 -1 -7 -10 -4 -11 5 -14 2 -9 -12 5 -16 4 -16 -5 -4 -8 11 -7 18 6
27 15 12 14 15 -8 33 -13 12 -34 30 -46 40 -13 12 -20 26 -17 35 4 8 4 15 1
15 -3 0 -7 -6 -10 -12z m407 -726 c3 -5 -1 -9 -9 -9 -8 0 -12 4 -9 9 3 4 7 8
9 8 2 0 6 -4 9 -8z"/>
<path d="M484 1314 c-49 -29 -94 -57 -99 -62 -6 -5 -33 -22 -60 -38 -65 -38
-74 -44 -126 -78 -24 -16 -79 -51 -121 -79 l-78 -51 0 -488 c0 -268 3 -487 8
-486 4 1 22 -6 39 -15 29 -15 60 -17 244 -15 l211 3 -103 105 c-103 104 -217
193 -321 250 l-53 30 34 0 c35 0 125 -41 198 -92 71 -48 246 -227 239 -244 -3
-9 -1 -12 4 -9 6 3 20 -6 33 -21 13 -15 29 -25 36 -23 33 11 -202 257 -339
355 -48 34 -52 39 -31 42 14 2 45 -11 79 -34 56 -36 249 -224 327 -317 l40
-48 218 3 218 3 -133 131 c-73 72 -199 195 -281 275 l-147 144 45 145 c53 170
121 427 133 506 9 52 8 55 -10 50 -34 -8 -67 15 -91 64 l-24 47 -89 -53z"/>
<path d="M2005 1330 c3 -5 8 -10 11 -10 2 0 4 5 4 10 0 6 -5 10 -11 10 -5 0
-7 -4 -4 -10z"/>
<path d="M2012 1145 c-12 -14 -19 -25 -16 -25 4 0 17 11 30 25 13 14 20 25 15
25 -4 0 -17 -11 -29 -25z"/>
<path d="M2120 1118 c0 -9 -9 -19 -19 -23 -38 -12 -61 -14 -61 -5 0 5 -11 7
-25 4 -15 -3 -25 0 -25 7 0 7 -2 10 -5 7 -3 -3 -3 -11 0 -19 3 -9 24 -15 57
-17 29 -2 54 -5 56 -7 3 -2 0 -17 -6 -34 -10 -29 -9 -30 38 -50 84 -36 92 -29
65 51 -17 48 -75 115 -75 86z"/>
<path d="M830 1019 c0 -8 5 -20 12 -27 8 -8 8 -12 1 -12 -12 0 -11 -3 24 -192
14 -76 29 -138 33 -138 4 0 7 -8 7 -17 -1 -43 85 -313 121 -378 33 -60 99
-111 184 -144 79 -31 83 -34 68 -61 -6 -12 -8 -25 -4 -28 4 -4 9 -1 11 6 5 13
54 42 72 42 5 0 18 -16 30 -35 l20 -35 96 0 c52 0 95 1 95 3 0 12 -35 104 -43
115 -5 7 -7 16 -3 19 15 16 41 -17 61 -75 14 -44 25 -62 38 -62 21 0 21 6 2
60 -19 54 -19 61 3 53 11 -4 8 4 -11 24 -20 22 -25 33 -17 38 13 8 32 -14 24
-26 -2 -4 3 -9 10 -12 8 -3 15 -14 15 -24 0 -10 5 -39 12 -65 11 -43 15 -48
41 -48 28 0 37 13 18 25 -5 3 -15 16 -22 28 -9 19 -9 20 3 11 8 -6 22 -10 32
-9 9 2 15 -1 11 -6 -3 -5 -10 -6 -16 -3 -7 4 -8 2 -4 -4 4 -6 14 -8 23 -5 12
5 14 3 8 -7 -5 -9 -4 -11 4 -6 6 4 18 0 27 -8 13 -13 46 -16 206 -16 104 0
188 3 186 8 -14 32 -72 122 -86 134 -9 9 -35 21 -57 28 -61 19 -88 43 -174
148 -43 53 -85 103 -94 111 -9 7 -48 21 -86 31 -64 17 -71 17 -115 2 -27 -10
-46 -23 -46 -32 0 -25 37 -133 63 -188 23 -47 24 -62 6 -62 -19 0 -106 263
-89 268 6 2 -36 32 -92 66 -378 229 -411 253 -457 341 -12 22 -21 46 -21 53 0
7 -4 11 -8 8 -5 -3 -24 10 -42 29 -18 19 -37 32 -42 29 -5 -3 -7 -2 -6 3 2 4
-5 19 -15 33 -11 16 -17 19 -17 9z m878 -914 c-3 -3 -9 2 -12 12 -6 14 -5 15
5 6 7 -7 10 -15 7 -18z"/>
<path d="M2076 906 c4 -10 -16 -34 -53 -68 -94 -85 -310 -302 -289 -291 15 8
38 2 106 -28 48 -22 92 -39 97 -39 13 0 54 45 48 52 -13 12 46 116 91 163 27
28 49 53 49 57 0 3 4 10 8 15 5 4 8 3 7 -2 -5 -22 1 -27 15 -15 23 19 17 119
-6 104 -5 -3 -6 2 -3 10 4 10 -7 21 -35 35 -30 16 -39 18 -35 7z"/>
<path d="M2344 663 c16 -152 16 -154 45 -164 14 -5 34 -14 45 -20 12 -7 16 -7
12 0 -4 7 -1 8 8 5 9 -3 13 -11 9 -18 -4 -6 -8 -17 -9 -24 -2 -10 1 -10 12 -1
7 6 11 15 8 20 -11 19 28 20 143 5 65 -9 135 -19 156 -22 l37 -7 0 52 c0 45
-2 51 -21 51 -13 0 -18 4 -13 12 5 8 2 9 -10 5 -19 -8 -59 9 -52 22 3 4 -1 8
-9 8 -8 0 -12 -5 -8 -10 3 -5 -5 -3 -18 4 -13 7 -24 11 -24 9 0 -7 -146 53
-151 62 -3 4 -13 8 -22 8 -9 0 -44 14 -77 30 -33 17 -61 30 -63 30 -2 0 -1
-26 2 -57z"/>
<path d="M2373 413 c4 -43 17 -104 29 -135 l22 -57 29 42 c15 23 37 60 49 82
11 22 30 51 42 64 l21 23 -34 -20 c-34 -21 -51 -21 -51 -1 0 6 6 7 13 3 9 -5
9 -4 1 5 -9 10 -17 10 -34 1 -18 -10 -21 -9 -15 1 6 9 3 10 -10 5 -14 -5 -16
-4 -6 7 9 11 7 17 -6 28 -16 13 -17 12 -4 -3 7 -10 10 -18 5 -19 -5 0 -17 -2
-26 -4 -15 -3 -16 0 -7 17 9 16 8 19 -2 13 -9 -6 -11 -3 -6 8 4 10 2 17 -5 17
-8 0 -9 -23 -5 -77z"/>
<path d="M2565 450 c-3 -6 1 -7 9 -4 18 7 21 14 7 14 -6 0 -13 -4 -16 -10z"/>
<path d="M2620 360 c-6 -11 -8 -20 -6 -20 3 0 10 9 16 20 6 11 8 20 6 20 -3 0
-10 -9 -16 -20z"/>
<path d="M2671 310 c-11 -27 -96 -137 -127 -165 -6 -5 -36 -40 -68 -77 l-58
-68 196 0 196 0 0 98 0 98 -42 24 c-25 14 -38 18 -33 9 5 -9 5 -11 -2 -4 -6 6
-18 34 -28 63 -9 28 -17 52 -18 52 -1 0 -8 -14 -16 -30z m100 -107 c13 -16 12
-17 -3 -4 -17 13 -22 21 -14 21 2 0 10 -8 17 -17z"/>
<path d="M2557 260 c-15 -22 -50 -64 -78 -95 -28 -30 -48 -55 -45 -55 13 0
162 177 155 184 -2 3 -17 -13 -32 -34z"/>
<path d="M2359 153 l-34 -38 38 34 c20 19 37 36 37 38 0 8 -8 0 -41 -34z"/>
<path d="M2294 78 c-44 -49 -68 -78 -62 -78 2 0 26 25 52 55 51 60 58 75 10
23z"/>
<path d="M2380 55 c-24 -25 -40 -45 -35 -44 10 1 92 89 83 89 -2 0 -24 -20
-48 -45z"/>
<path d="M1080 66 c0 -2 8 -10 18 -17 15 -13 16 -12 3 4 -13 16 -21 21 -21 13z"/>
</g>
</svg>
